<?xml version="1.0" encoding="utf-8"?>
<!-- Generator: Adobe Illustrator 16.0.0, SVG Export Plug-In . SVG Version: 6.00 Build 0)  -->
<!DOCTYPE svg PUBLIC "-//W3C//DTD SVG 1.1//EN" "http://www.w3.org/Graphics/SVG/1.1/DTD/svg11.dtd">
<svg version="1.1" id="Layer_1" xmlns="http://www.w3.org/2000/svg" xmlns:xlink="http://www.w3.org/1999/xlink" x="0px" y="0px"
	 width="135px" height="50px" viewBox="0 0 135 50" enable-background="new 0 0 135 50" xml:space="preserve">
<g enable-background="new    ">
	<path fill="#808285" d="M1.107,35.633h3.838c1.737,0,2.857,0.84,2.857,2.479c0,1.052-0.616,1.963-1.737,2.283v0.016
		c1.331,0.238,2.031,1.261,2.031,2.438c0,1.877-1.485,2.787-3.04,2.787h-3.95L1.107,35.633L1.107,35.633z M4.637,40.03
		c1.121,0,2.059-0.561,2.059-1.75c0-1.191-0.854-1.683-1.989-1.683H2.242v3.433H4.637z M4.819,44.667
		c1.219,0,2.144-0.603,2.144-1.877c0-1.261-0.925-1.808-2.157-1.808H2.242v3.685H4.819z"/>
	<path fill="#808285" d="M9.717,43.463v-4.861h1.05v4.469c0,1.248,0.603,1.794,1.541,1.794c1.051,0,1.975-0.798,1.975-2.13v-4.133
		h1.037v7.032h-1.009v-1.219h-0.028c-0.49,0.925-1.373,1.387-2.312,1.387C10.473,45.802,9.717,44.793,9.717,43.463z"/>
	<path fill="#808285" d="M16.814,44.682l0.714-0.589c0.561,0.574,1.233,0.869,2.129,0.869c0.84,0,1.709-0.435,1.709-1.261
		c0-0.785-0.49-1.01-1.457-1.191l-0.812-0.168c-1.219-0.238-1.975-0.798-1.975-1.807c0-1.219,0.994-2.102,2.521-2.102
		c1.065,0,1.905,0.252,2.452,0.883l-0.714,0.545c-0.448-0.392-0.995-0.615-1.793-0.615c-0.854,0-1.443,0.463-1.443,1.135
		c0,0.674,0.574,0.896,1.527,1.094l1.05,0.224c1.037,0.225,1.723,0.784,1.723,1.821c0,1.526-1.415,2.282-2.773,2.282
		C18.523,45.802,17.473,45.494,16.814,44.682z"/>
	<path fill="#808285" d="M24.053,35.646h1.037v1.525h-1.037V35.646z M24.053,38.602h1.037v7.032h-1.037V38.602z"/>
	<path fill="#808285" d="M27.132,38.602h1.009v1.219h0.028c0.49-0.909,1.373-1.371,2.311-1.371c1.499,0,2.255,0.98,2.255,2.324v4.86
		h-1.05v-4.469c0-1.246-0.588-1.808-1.527-1.808c-1.065,0-1.989,0.8-1.989,2.129v4.146h-1.037V38.602z"/>
	<path fill="#808285" d="M34.37,42.958v-1.483c0-1.935,1.316-3.013,3.011-3.013c1.555,0,2.788,0.938,2.788,2.761v1.105h-4.72v0.729
		c0,1.148,0.784,1.862,2.017,1.862c0.812,0,1.4-0.42,1.779-0.896l0.798,0.477c-0.63,0.98-1.639,1.316-2.647,1.316
		C35.673,45.814,34.37,44.893,34.37,42.958z M39.132,41.6v-0.406c0-1.063-0.63-1.862-1.807-1.862c-1.135,0-1.877,0.841-1.877,1.961
		V41.6H39.132z"/>
	<path fill="#808285" d="M41.342,44.682l0.714-0.589c0.561,0.574,1.233,0.869,2.129,0.869c0.84,0,1.709-0.435,1.709-1.261
		c0-0.785-0.49-1.01-1.457-1.191l-0.812-0.168c-1.219-0.238-1.975-0.798-1.975-1.807c0-1.219,0.994-2.102,2.521-2.102
		c1.065,0,1.905,0.252,2.452,0.883l-0.714,0.545c-0.448-0.392-0.995-0.615-1.793-0.615c-0.854,0-1.443,0.463-1.443,1.135
		c0,0.674,0.574,0.896,1.527,1.094l1.05,0.224c1.037,0.225,1.723,0.784,1.723,1.821c0,1.526-1.415,2.282-2.773,2.282
		C43.051,45.802,42,45.494,41.342,44.682z"/>
	<path fill="#808285" d="M47.978,44.682l0.714-0.589c0.561,0.574,1.233,0.869,2.129,0.869c0.84,0,1.709-0.435,1.709-1.261
		c0-0.785-0.49-1.01-1.457-1.191l-0.812-0.168c-1.219-0.238-1.975-0.798-1.975-1.807c0-1.219,0.994-2.102,2.521-2.102
		c1.065,0,1.905,0.252,2.452,0.883l-0.714,0.545c-0.448-0.392-0.995-0.615-1.793-0.615c-0.854,0-1.443,0.463-1.443,1.135
		c0,0.674,0.574,0.896,1.527,1.094l1.05,0.224c1.037,0.225,1.723,0.784,1.723,1.821c0,1.526-1.415,2.282-2.773,2.282
		C49.687,45.802,48.636,45.494,47.978,44.682z"/>
</g>
<g>
	<g>
		<g>
			
				<linearGradient id="SVGID_1_" gradientUnits="userSpaceOnUse" x1="102.0195" y1="760.3408" x2="130.5556" y2="760.3408" gradientTransform="matrix(1 0 0 1 -16.7197 -742.8906)">
				<stop  offset="0" style="stop-color:#FF3B00"/>
				<stop  offset="1" style="stop-color:#FF2A5E"/>
			</linearGradient>
			<path fill="url(#SVGID_1_)" d="M113.8,25.9c0,3.1-2.5,5.5-5.5,5.5H90.8c-3.1,0-5.5-2.5-5.5-5.5V9c0-3.1,2.5-5.5,5.5-5.5h17.4
				c3.1,0,5.5,2.5,5.5,5.5v16.9H113.8z"/>
		</g>
		<path fill="#343535" d="M82,28.9c0-1.4-1.1-2.5-2.5-2.5S77,27.5,77,28.9c0,1.398,1.1,2.5,2.5,2.5S82,30.3,82,28.9z"/>
		<g>
			<path fill="#343535" d="M15.6,16.3v-0.2c1.7-1.3,2.6-3.1,2.6-5.3c0-1.2-0.2-2.2-0.6-3.1c-0.4-0.9-0.9-1.6-1.6-2.1
				c-0.7-0.6-1.5-1-2.4-1.2c-0.9-0.3-1.9-0.4-3-0.4H0v26.3h11.1c1.2,0,2.3-0.1,3.3-0.399c1-0.301,2-0.699,2.8-1.301
				c0.8-0.6,1.4-1.398,1.9-2.3c0.5-0.9,0.7-2.1,0.7-3.4c0-1.6-0.4-3-1.2-4C17.9,17.8,16.9,17,15.6,16.3z M3.4,7.1h7.3
				c1.2,0,2.2,0.3,2.9,0.8c0.7,0.5,1.1,1.5,1.1,2.9c0,0.7-0.1,1.4-0.4,1.9c-0.3,0.5-0.7,1-1.1,1.3c-0.5,0.3-1,0.6-1.6,0.8
				c-0.6,0.2-1.2,0.3-1.8,0.3H3.4V7.1z M15.8,25c-0.2,0.6-0.5,1-0.9,1.4C14.5,26.7,14,27,13.4,27.1c-0.6,0.102-1.2,0.2-1.9,0.2H3.4
				v-9h7.9c1.5,0,2.7,0.4,3.6,1.2s1.3,1.9,1.3,3.4C16.1,23.6,16,24.4,15.8,25z"/>
			<path fill="#343535" d="M41.9,26.7L35.8,19c2.3-0.1,4.1-0.9,5.4-2.3c1.3-1.4,1.9-3.2,1.9-5.4c0-1.1-0.2-2.2-0.6-3.1
				c-0.4-0.9-0.9-1.7-1.6-2.3c-0.7-0.6-1.5-1.1-2.4-1.5c-0.9-0.3-2-0.5-3.1-0.5h-12v26.3h3.4V19.1h3c0.4,0,0.9,0.1,1.3,0.2
				c0.4,0.2,0.8,0.4,1.1,0.8l6.7,8.3c0.5,0.6,1,1.1,1.6,1.6s1.3,0.8,2,0.8c0.3,0,0.6,0,0.9-0.1c0.4-0.101,0.7-0.2,1-0.3V28
				c-0.5,0-1-0.1-1.3-0.2C42.7,27.6,42.3,27.3,41.9,26.7z M26.9,16V7.1h8.4c1.4,0,2.5,0.3,3.2,1c0.7,0.7,1.1,1.8,1.1,3.2
				c0,1.6-0.4,2.8-1.2,3.5c-0.8,0.8-2,1.1-3.6,1.1h-7.9V16z"/>
			<rect x="47.6" y="4" fill="#343535" width="3.4" height="26.3"/>
			<path fill="#343535" d="M75.1,12.1c-0.398-1.6-1-3-1.8-4.2C72.5,6.7,71.4,5.7,70.2,5c-1.3-0.7-2.9-1-4.7-1h-9.9v3.1h1.8h0.5H65
				c1.3,0,2.4,0.3,3.3,0.8c0.9,0.5,1.601,1.2,2.101,2.2c0.5,0.9,0.899,2,1.101,3.2c0.2,1.2,0.3,2.5,0.3,3.9c0,1.4-0.1,2.8-0.3,4
				c-0.2,1.2-0.5,2.3-1,3.2s-1.2,1.6-2.101,2.1c-0.899,0.5-2,0.8-3.399,0.8h-7.2l0,0h-2.4V30.4h10c1.9,0,3.5-0.301,4.8-1
				c1.3-0.7,2.3-1.602,3.1-2.7c0.801-1.2,1.301-2.6,1.7-4.2c0.3-1.6,0.5-3.3,0.5-5.2C75.6,15.4,75.4,13.7,75.1,12.1z"/>
		</g>
	</g>
	<g>
		<path fill="#FFFFFF" d="M94.7,20.6c0,0.5,0,1,0,1.1c0,0.4,0,0.8,0,1.3c0,0.1,0,0.2,0,0.3c0.1,0.1,0,0.2,0,0.3s0,0.2,0,0.2
			c0,0.4-0.3,0.7-0.7,0.9c-0.4,0-0.7,0-0.8-0.3c-0.101-0.3-0.2-0.5-0.3-0.8c-0.102-0.5-0.2-1-0.2-2.2c0-0.4,0-1.6,0-2
			c0-0.2,0-1.5,0.1-2.9c0-1,0.101-2,0.2-2.7c-1,0.2-1.4,0.3-2.4,0.5c-1,0.2-1.398,0.3-1.699,0.3c-0.199,0-0.301-0.1-0.399-0.1
			c-0.2-0.1-0.2-0.3-0.3-0.4c0-0.1,0-0.2,0-0.4l0.1-0.3c0.102-0.1,0.102-0.4,0.4-0.5c1.5-0.3,4.1-0.9,5.699-1.2
			c1.399-0.2,3.601-0.6,4.101-0.6c0.101,0,0.101,0,0.2,0.1c0.1,0,0.199,0,0.3,0.1c0.101,0,0.101,0,0.101,0
			c0.101,0,0.101,0.2,0.199,0.2c0.102,0,0,0.1,0.102,0.1l0.1,0.1v0.1v0.1c0,0.2,0,0.3,0,0.4v0.3c0,0-0.4,0.1-0.4,0.2
			c-0.5,0.1-1.898,0.2-2.8,0.3c-0.7,0.1-1.2,0.2-1.399,0.2c-0.101,0-0.199,0-0.301,0.1c-0.1,1-0.199,2.4-0.3,3.3c0,1.2,0,1.5,0,1.8
			C94.7,19.6,94.7,20.2,94.7,20.6L94.7,20.6z"/>
		<path fill="#FFFFFF" d="M102.1,21.9c-0.398-0.8-0.8-2.4-1-3.8c-0.199-1.4-0.5-3.2-0.699-4.3c0-0.1,0-0.3,0-0.4
			c-0.101-0.3-0.101-0.3-0.101-0.7c0-0.5,0.4-1.1,0.7-1.1c0.2,0,0.5,0.1,0.7,0.2c0.2,0.1,0.6,0.6,0.6,1.1s0.2,2.2,0.3,2.9
			c0.102,0.9,0.301,2.2,0.5,3.3c0.2,1.1,0.4,2.2,0.7,2.2c0.2,0,0.4-0.4,0.601-1c0.5-1,1.101-2.5,1.301-3.3c0.3-0.8,0.699-1.7,1-2.7
			c0.3-0.8,0.5-1.8,0.5-2c0-0.2,0.1-0.5,0.199-0.7c0.101-0.2,0.199-0.4,0.5-0.6s0.699-0.4,0.899-0.4c0.3,0,0.5,0.1,0.7,0.3
			c0.3,0.2,0.4,0.5,0.4,0.8c0,0.3,0,0.6-0.301,0.8c-0.199,0-0.399,0.5-0.5,0.6c-0.199,0.4-1.601,3.8-1.899,4.7c-0.3,1-0.7,2-1.4,3.5
			c-0.5,1.2-0.8,2.7-1.899,2.7C103.2,24.1,102.5,22.7,102.1,21.9z"/>
	</g>
</g>
<g>
	<circle fill="#F21F03" cx="64.315" cy="41.7" r="5.9"/>
	<g>
		<path fill="#FFFFFF" d="M63.315,39.5v-1.8h1.9v1.8H63.315z M63.315,45.7v-5.3h1.9v5.3H63.315z"/>
	</g>
</g>
</svg>
