<?xml version="1.0" encoding="utf-8"?>
<!-- Generator: Adobe Illustrator 16.0.0, SVG Export Plug-In . SVG Version: 6.00 Build 0)  -->
<!DOCTYPE svg PUBLIC "-//W3C//DTD SVG 1.1//EN" "http://www.w3.org/Graphics/SVG/1.1/DTD/svg11.dtd">
<svg version="1.1" id="Layer_1" xmlns="http://www.w3.org/2000/svg" xmlns:xlink="http://www.w3.org/1999/xlink" x="0px" y="0px"
	 width="135px" height="50px" viewBox="0 0 135 50" enable-background="new 0 0 135 50" xml:space="preserve">
<g enable-background="new    ">
	<path fill="#808285" d="M0.477,43.406l1.037-0.379c0.393,1.121,1.401,1.779,2.76,1.779c1.316,0,2.381-0.645,2.381-1.793
		c0-1.063-0.659-1.498-1.541-1.779l-1.891-0.531c-1.401-0.393-2.213-1.12-2.213-2.551c0-1.651,1.4-2.688,3.208-2.688
		c1.541,0,2.83,0.575,3.348,1.892l-0.98,0.393c-0.434-0.854-1.247-1.33-2.381-1.33c-1.022,0-2.073,0.52-2.073,1.639
		c0,0.784,0.477,1.332,1.653,1.682L5.69,40.27c1.177,0.322,2.073,1.051,2.073,2.635c0,1.709-1.415,2.898-3.544,2.898
		C2.396,45.802,0.939,44.977,0.477,43.406z"/>
	<path fill="#808285" d="M9.675,44.163v-4.707H8.457v-0.84h1.219v-2.199h1.036v2.199h1.947v0.84h-1.947v4.44
		c0,0.701,0.364,0.91,0.995,0.91c0.364,0,0.687-0.057,1.022-0.125v0.896c-0.434,0.14-1.008,0.182-1.302,0.182
		C10.501,45.76,9.675,45.367,9.675,44.163z"/>
	<path fill="#808285" d="M13.679,43.743c0-1.527,1.387-2.115,2.605-2.115h2.003v-0.979c0-1.01-0.672-1.373-1.681-1.373
		c-0.827,0-1.667,0.293-1.667,1.093v0.237h-0.953v-0.211c0-1.429,1.345-1.945,2.662-1.945c1.415,0,2.689,0.49,2.689,2.072v3.403
		c0,0.394,0.056,1.429,0.098,1.709h-1.023c-0.028-0.21-0.056-0.813-0.07-0.993h-0.028c-0.588,0.965-1.429,1.147-2.297,1.147
		C14.701,45.788,13.679,45.046,13.679,43.743z M18.287,43.07v-0.672h-1.821c-0.896,0-1.751,0.236-1.751,1.287
		c0,0.854,0.729,1.275,1.583,1.275C17.699,44.962,18.287,44.177,18.287,43.07z"/>
	<path fill="#808285" d="M21.21,38.602h1.023v1.416h0.028c0.561-1.121,1.611-1.526,2.521-1.526c0.182,0,0.364,0.014,0.518,0.042
		v0.98c-0.238-0.043-0.462-0.043-0.644-0.043c-1.331,0-2.368,0.813-2.396,2.325v3.838h-1.05V38.602z"/>
	<path fill="#808285" d="M27.287,44.163v-4.707h-1.219v-0.84h1.219v-2.199h1.036v2.199h1.947v0.84h-1.947v4.44
		c0,0.701,0.364,0.91,0.995,0.91c0.364,0,0.687-0.057,1.022-0.125v0.896c-0.434,0.14-1.008,0.182-1.303,0.182
		C28.113,45.76,27.287,45.367,27.287,44.163z"/>
	<path fill="#808285" d="M31.346,42.958v-1.483c0-1.935,1.316-3.013,3.012-3.013c1.555,0,2.787,0.938,2.787,2.761v1.105h-4.72v0.729
		c0,1.148,0.784,1.862,2.017,1.862c0.813,0,1.4-0.42,1.779-0.896l0.798,0.477c-0.63,0.98-1.639,1.316-2.647,1.316
		C32.649,45.814,31.346,44.893,31.346,42.958z M36.108,41.6v-0.406c0-1.063-0.63-1.862-1.807-1.862
		c-1.135,0-1.877,0.841-1.877,1.961V41.6H36.108z"/>
	<path fill="#808285" d="M38.766,38.602h1.023v1.416h0.028c0.561-1.121,1.611-1.526,2.521-1.526c0.182,0,0.364,0.014,0.518,0.042
		v0.98c-0.238-0.043-0.462-0.043-0.644-0.043c-1.331,0-2.368,0.813-2.396,2.325v3.838h-1.051L38.766,38.602L38.766,38.602z"/>
</g>
<g>
	<g>
		<g>
			
				<linearGradient id="SVGID_1_" gradientUnits="userSpaceOnUse" x1="102.0195" y1="760.3408" x2="130.5556" y2="760.3408" gradientTransform="matrix(1 0 0 1 -16.7197 -742.8906)">
				<stop  offset="0" style="stop-color:#FF3B00"/>
				<stop  offset="1" style="stop-color:#FF2A5E"/>
			</linearGradient>
			<path fill="url(#SVGID_1_)" d="M113.8,25.9c0,3.1-2.5,5.5-5.5,5.5H90.8c-3.1,0-5.5-2.5-5.5-5.5V9c0-3.1,2.5-5.5,5.5-5.5h17.4
				c3.1,0,5.5,2.5,5.5,5.5v16.9H113.8z"/>
		</g>
		<path fill="#343535" d="M82,28.9c0-1.4-1.1-2.5-2.5-2.5S77,27.5,77,28.9c0,1.398,1.1,2.5,2.5,2.5S82,30.3,82,28.9z"/>
		<g>
			<path fill="#343535" d="M15.6,16.3v-0.2c1.7-1.3,2.6-3.1,2.6-5.3c0-1.2-0.2-2.2-0.6-3.1c-0.4-0.9-0.9-1.6-1.6-2.1
				c-0.7-0.6-1.5-1-2.4-1.2c-0.9-0.3-1.9-0.4-3-0.4H0v26.3h11.1c1.2,0,2.3-0.1,3.3-0.399c1-0.301,2-0.699,2.8-1.301
				c0.8-0.6,1.4-1.398,1.9-2.3c0.5-0.9,0.7-2.1,0.7-3.4c0-1.6-0.4-3-1.2-4C17.9,17.8,16.9,17,15.6,16.3z M3.4,7.1h7.3
				c1.2,0,2.2,0.3,2.9,0.8c0.7,0.5,1.1,1.5,1.1,2.9c0,0.7-0.1,1.4-0.4,1.9c-0.3,0.5-0.7,1-1.1,1.3c-0.5,0.3-1,0.6-1.6,0.8
				c-0.6,0.2-1.2,0.3-1.8,0.3H3.4V7.1z M15.8,25c-0.2,0.6-0.5,1-0.9,1.4C14.5,26.7,14,27,13.4,27.1c-0.6,0.102-1.2,0.2-1.9,0.2H3.4
				v-9h7.9c1.5,0,2.7,0.4,3.6,1.2s1.3,1.9,1.3,3.4C16.1,23.6,16,24.4,15.8,25z"/>
			<path fill="#343535" d="M41.9,26.7L35.8,19c2.3-0.1,4.1-0.9,5.4-2.3c1.3-1.4,1.9-3.2,1.9-5.4c0-1.1-0.2-2.2-0.6-3.1
				c-0.4-0.9-0.9-1.7-1.6-2.3c-0.7-0.6-1.5-1.1-2.4-1.5c-0.9-0.3-2-0.5-3.1-0.5h-12v26.3h3.4V19.1h3c0.4,0,0.9,0.1,1.3,0.2
				c0.4,0.2,0.8,0.4,1.1,0.8l6.7,8.3c0.5,0.6,1,1.1,1.6,1.6s1.3,0.8,2,0.8c0.3,0,0.6,0,0.9-0.1c0.4-0.101,0.7-0.2,1-0.3V28
				c-0.5,0-1-0.1-1.3-0.2C42.7,27.6,42.3,27.3,41.9,26.7z M26.9,16V7.1h8.4c1.4,0,2.5,0.3,3.2,1c0.7,0.7,1.1,1.8,1.1,3.2
				c0,1.6-0.4,2.8-1.2,3.5c-0.8,0.8-2,1.1-3.6,1.1h-7.9V16z"/>
			<rect x="47.6" y="4" fill="#343535" width="3.4" height="26.3"/>
			<path fill="#343535" d="M75.1,12.1c-0.398-1.6-1-3-1.8-4.2C72.5,6.7,71.4,5.7,70.2,5c-1.3-0.7-2.9-1-4.7-1h-9.9v3.1h1.8h0.5H65
				c1.3,0,2.4,0.3,3.3,0.8c0.9,0.5,1.601,1.2,2.101,2.2c0.5,0.9,0.899,2,1.101,3.2c0.2,1.2,0.3,2.5,0.3,3.9c0,1.4-0.1,2.8-0.3,4
				c-0.2,1.2-0.5,2.3-1,3.2s-1.2,1.6-2.101,2.1c-0.899,0.5-2,0.8-3.399,0.8h-7.2l0,0h-2.4V30.4h10c1.9,0,3.5-0.301,4.8-1
				c1.3-0.7,2.3-1.602,3.1-2.7c0.801-1.2,1.301-2.6,1.7-4.2c0.3-1.6,0.5-3.3,0.5-5.2C75.6,15.4,75.4,13.7,75.1,12.1z"/>
		</g>
	</g>
	<g>
		<path fill="#FFFFFF" d="M94.7,20.6c0,0.5,0,1,0,1.1c0,0.4,0,0.8,0,1.3c0,0.1,0,0.2,0,0.3c0.1,0.1,0,0.2,0,0.3s0,0.2,0,0.2
			c0,0.4-0.3,0.7-0.7,0.9c-0.4,0-0.7,0-0.8-0.3c-0.101-0.3-0.2-0.5-0.3-0.8c-0.102-0.5-0.2-1-0.2-2.2c0-0.4,0-1.6,0-2
			c0-0.2,0-1.5,0.1-2.9c0-1,0.101-2,0.2-2.7c-1,0.2-1.4,0.3-2.4,0.5c-1,0.2-1.398,0.3-1.699,0.3c-0.199,0-0.301-0.1-0.399-0.1
			c-0.2-0.1-0.2-0.3-0.3-0.4c0-0.1,0-0.2,0-0.4l0.1-0.3c0.102-0.1,0.102-0.4,0.4-0.5c1.5-0.3,4.1-0.9,5.699-1.2
			c1.399-0.2,3.601-0.6,4.101-0.6c0.101,0,0.101,0,0.2,0.1c0.1,0,0.199,0,0.3,0.1c0.101,0,0.101,0,0.101,0
			c0.101,0,0.101,0.2,0.199,0.2c0.102,0,0,0.1,0.102,0.1l0.1,0.1v0.1v0.1c0,0.2,0,0.3,0,0.4v0.3c0,0-0.4,0.1-0.4,0.2
			c-0.5,0.1-1.898,0.2-2.8,0.3c-0.7,0.1-1.2,0.2-1.399,0.2c-0.101,0-0.199,0-0.301,0.1c-0.1,1-0.199,2.4-0.3,3.3c0,1.2,0,1.5,0,1.8
			C94.7,19.6,94.7,20.2,94.7,20.6L94.7,20.6z"/>
		<path fill="#FFFFFF" d="M102.1,21.9c-0.398-0.8-0.8-2.4-1-3.8c-0.199-1.4-0.5-3.2-0.699-4.3c0-0.1,0-0.3,0-0.4
			c-0.101-0.3-0.101-0.3-0.101-0.7c0-0.5,0.4-1.1,0.7-1.1c0.2,0,0.5,0.1,0.7,0.2c0.2,0.1,0.6,0.6,0.6,1.1s0.2,2.2,0.3,2.9
			c0.102,0.9,0.301,2.2,0.5,3.3c0.2,1.1,0.4,2.2,0.7,2.2c0.2,0,0.4-0.4,0.601-1c0.5-1,1.101-2.5,1.301-3.3c0.3-0.8,0.699-1.7,1-2.7
			c0.3-0.8,0.5-1.8,0.5-2c0-0.2,0.1-0.5,0.199-0.7c0.101-0.2,0.199-0.4,0.5-0.6s0.699-0.4,0.899-0.4c0.3,0,0.5,0.1,0.7,0.3
			c0.3,0.2,0.4,0.5,0.4,0.8c0,0.3,0,0.6-0.301,0.8c-0.199,0-0.399,0.5-0.5,0.6c-0.199,0.4-1.601,3.8-1.899,4.7c-0.3,1-0.7,2-1.4,3.5
			c-0.5,1.2-0.8,2.7-1.899,2.7C103.2,24.1,102.5,22.7,102.1,21.9z"/>
	</g>
</g>
<g>
	<circle fill="#F21F03" cx="53.5" cy="41.7" r="5.9"/>
	<g>
		<path fill="#FFFFFF" d="M52.6,39.5v-1.8H54.5v1.8H52.6z M52.6,45.7v-5.3H54.5v5.3H52.6z"/>
	</g>
</g>
</svg>
