
<svg xmlns="http://www.w3.org/2000/svg" xmlns:xlink="http://www.w3.org/1999/xlink" id="Layer_1" x="0px" y="0px" width="383.3px" height="62.6px" viewBox="0 0 383.3 62.6" style="enable-background:new 0 0 383.3 62.6;" xml:space="preserve"><style type="text/css">	.st0{fill:url(#SVGID_1_);}	.st1{fill:#000000;}	.st2{fill:url(#SVGID_00000096761458441097518120000011088229468352650925_);}	.st3{fill:url(#SVGID_00000039132695600424787340000004047552705670778303_);}	.st4{fill:url(#SVGID_00000129201832231468365700000015978565647731518652_);}	.st5{fill:url(#SVGID_00000005969056396921187090000011096287484902822297_);}</style><g>	<g>		<linearGradient id="SVGID_1_" gradientUnits="userSpaceOnUse" x1="203.2975" y1="32.7796" x2="400.2809" y2="32.7796">			<stop offset="0" style="stop-color:#119489"></stop>			<stop offset="1" style="stop-color:#38EA7D"></stop>		</linearGradient>		<path class="st0" d="M365.2,15.1c-10.4,0-18.1,7.5-18.1,17.7c0,10.1,7.7,17.7,18.1,17.7c10.3,0,18.1-7.6,18.1-17.7   C383.3,22.6,375.5,15.1,365.2,15.1z M376.8,33.7c-4.1,1.1-11.4,3.9-17.5,10.1c-0.6,0.6-1.7,0.1-1.5-0.8c0.7-3.8,1.4-10.7-0.2-20.6   c-0.1-0.8,0.9-1.4,1.5-0.8c2.9,2.7,8.9,7.4,17.8,10.4C377.7,32.3,377.7,33.5,376.8,33.7z"></path>	</g>	<path class="st1" d="M23.3,41.2c-1.1,0.8-2.4,1.3-4,1.3c-1.4,0-2.4-0.4-3.1-1.2c-0.7-0.8-1.1-1.9-1.1-3.3V24.1h8.5v-7.6h-8.5V8.2  H5.3v8.3H0v7.6h5.3v14c0,4,1.1,7,3.3,9.1c2.2,2.1,5.4,3.1,9.4,3.1c1.6,0,3-0.2,4.5-0.5c1.4-0.4,2.6-0.9,3.6-1.6L23.3,41.2z"></path>	<path class="st1" d="M57.5,19c-2.8-2.5-6.9-3.8-12.1-3.8c-2.7,0-5.4,0.4-8,1.1c-2.6,0.7-4.8,1.7-6.7,3l3.5,6.9  c1.2-1,2.7-1.7,4.5-2.3c1.7-0.6,3.5-0.9,5.4-0.9c2.6,0,4.6,0.6,5.9,1.7c1.3,1.2,2,2.8,2,5H44c-5,0-8.7,0.9-11,2.7  c-2.4,1.8-3.6,4.3-3.6,7.5c0,2,0.5,3.8,1.5,5.3c1,1.6,2.5,2.8,4.4,3.7c1.9,0.9,4.2,1.3,6.8,1.3c5.1,0,8.5-1.6,10.4-4.7v4.2h9.2  V30.4C61.7,25.3,60.3,21.5,57.5,19z M51.8,39c-0.6,1.5-1.5,2.7-2.8,3.5c-1.3,0.8-2.8,1.2-4.5,1.2c-1.7,0-3.1-0.4-4.1-1.1  c-1-0.7-1.5-1.7-1.5-3c0-2.7,2-4,6.1-4h6.8V39z"></path>	<path class="st1" d="M84.8,16.5c-2,0.8-3.6,2.1-4.8,3.7v-4.5h-9.4v34h9.9V33.7c0-3.2,0.8-5.5,2.4-7.1c1.6-1.6,3.8-2.4,6.6-2.4  c0.4,0,1.1,0,2.2,0.1v-9.1C89.1,15.3,86.8,15.7,84.8,16.5z"></path>	<path class="st1" d="M123.1,15.8v4.4c-2.6-3.3-6.3-4.9-11.3-4.9c-3.1,0-6,0.7-8.6,2.1c-2.6,1.4-4.7,3.3-6.2,5.8  c-1.5,2.5-2.3,5.4-2.3,8.6s0.8,6.1,2.3,8.6c1.5,2.5,3.6,4.4,6.2,5.8c2.6,1.4,5.5,2.1,8.6,2.1c4.6,0,8.2-1.4,10.8-4.2v1.5  c0,3.1-0.8,5.5-2.4,7c-1.6,1.5-4.1,2.3-7.6,2.3c-2.2,0-4.4-0.3-6.6-1c-2.2-0.7-4-1.6-5.4-2.8l-3.9,7.1c1.9,1.5,4.4,2.7,7.3,3.5  c2.9,0.8,6.1,1.2,9.4,1.2c6.2,0,11-1.5,14.2-4.6c3.3-3,4.9-7.7,4.9-13.9V15.8H123.1z M120.2,37.7c-1.7,1.5-3.8,2.3-6.4,2.3  c-2.6,0-4.8-0.8-6.5-2.3c-1.7-1.5-2.5-3.6-2.5-6s0.8-4.5,2.5-6c1.7-1.5,3.8-2.3,6.5-2.3c2.6,0,4.8,0.8,6.4,2.3  c1.7,1.5,2.5,3.6,2.5,6S121.9,36.2,120.2,37.7z"></path>	<path class="st1" d="M175,32.9c0-3.5-0.8-6.7-2.3-9.3c-1.5-2.7-3.7-4.7-6.4-6.2c-2.7-1.4-5.7-2.1-9.1-2.1c-3.4,0-6.5,0.7-9.3,2.2  c-2.8,1.5-4.9,3.6-6.5,6.3c-1.6,2.7-2.4,5.7-2.4,9c0,3.4,0.8,6.4,2.4,9c1.6,2.7,3.9,4.7,6.8,6.2c2.9,1.5,6.3,2.2,10.2,2.2  c6.2,0,10.8-1.8,14-5.5l-5.3-5.7c-1.2,1.1-2.5,2-3.8,2.5c-1.4,0.5-2.9,0.8-4.7,0.8c-2.6,0-4.7-0.6-6.4-1.8c-1.7-1.2-2.8-2.9-3.3-5  h25.8C174.9,33.9,175,33,175,32.9z M148.9,29.8c0.3-2.2,1.3-3.9,2.8-5.2c1.5-1.3,3.4-1.9,5.6-1.9c2.2,0,4.1,0.6,5.6,1.9  c1.5,1.3,2.4,3,2.8,5.2H148.9z"></path>	<path class="st1" d="M200.8,41.2c-1.1,0.8-2.4,1.3-4,1.3c-1.4,0-2.4-0.4-3.1-1.2c-0.7-0.8-1.1-1.9-1.1-3.3V24.1h8.5v-7.6h-8.5V8.2  h-9.9v8.3h-5.3v7.6h5.3v14c0,4,1.1,7,3.3,9.1c2.2,2.1,5.3,3.1,9.4,3.1c1.6,0,3-0.2,4.5-0.5c1.4-0.4,2.6-0.9,3.6-1.6L200.8,41.2z"></path>			<linearGradient id="SVGID_00000104695368556808568000000013384654865872926395_" gradientUnits="userSpaceOnUse" x1="203.2975" y1="32.7796" x2="400.2809" y2="32.7796">		<stop offset="0" style="stop-color:#119489"></stop>		<stop offset="1" style="stop-color:#38EA7D"></stop>	</linearGradient>	<path style="fill:url(#SVGID_00000104695368556808568000000013384654865872926395_);" d="M232.7,15.8L223,38.9l-9.4-23.2h-10.2  l14.3,34h10.2l14.4-34H232.7z"></path>			<linearGradient id="SVGID_00000025439866493973148980000000553778480086261939_" gradientUnits="userSpaceOnUse" x1="203.2975" y1="24.9001" x2="400.2809" y2="24.9001">		<stop offset="0" style="stop-color:#119489"></stop>		<stop offset="1" style="stop-color:#38EA7D"></stop>	</linearGradient>	<path style="fill:url(#SVGID_00000025439866493973148980000000553778480086261939_);" d="M255.6,1.5c-1.1-1-2.6-1.5-4.4-1.5  c-1.8,0-3.3,0.5-4.4,1.6c-1.1,1-1.7,2.4-1.7,3.9c0,1.6,0.6,2.9,1.7,3.9c1.1,1,2.6,1.6,4.4,1.6c1.8,0,3.3-0.5,4.4-1.6  c1.1-1.1,1.7-2.4,1.7-4.1C257.3,3.8,256.8,2.5,255.6,1.5z M246.3,15.8v34h9.9v-34H246.3z"></path>			<linearGradient id="SVGID_00000031203294653922056260000011594584955962458272_" gradientUnits="userSpaceOnUse" x1="203.2975" y1="26.5765" x2="400.2809" y2="26.5765">		<stop offset="0" style="stop-color:#119489"></stop>		<stop offset="1" style="stop-color:#38EA7D"></stop>	</linearGradient>	<path style="fill:url(#SVGID_00000031203294653922056260000011594584955962458272_);" d="M290.1,2.8v16.5  c-2.5-2.7-5.8-4.1-10.2-4.1c-3.2,0-6.1,0.7-8.7,2.1c-2.6,1.4-4.6,3.5-6.1,6.1c-1.5,2.7-2.2,5.7-2.2,9.2c0,3.5,0.7,6.6,2.2,9.2  c1.5,2.7,3.5,4.7,6.1,6.1c2.6,1.4,5.5,2.2,8.7,2.2c4.6,0,8.2-1.5,10.6-4.4v3.9h9.4v-47H290.1z M287.8,39.6  c-1.6,1.7-3.7,2.6-6.2,2.6c-2.5,0-4.6-0.9-6.3-2.6c-1.6-1.7-2.5-4-2.5-6.9c0-2.9,0.8-5.2,2.5-6.9c1.6-1.7,3.7-2.6,6.3-2.6  c2.5,0,4.6,0.9,6.2,2.6c1.6,1.7,2.5,4,2.5,6.9C290.3,35.6,289.5,37.9,287.8,39.6z"></path>			<linearGradient id="SVGID_00000026142454961111151990000015751279139424725406_" gradientUnits="userSpaceOnUse" x1="203.2975" y1="32.7796" x2="400.2809" y2="32.7796">		<stop offset="0" style="stop-color:#119489"></stop>		<stop offset="1" style="stop-color:#38EA7D"></stop>	</linearGradient>	<path style="fill:url(#SVGID_00000026142454961111151990000015751279139424725406_);" d="M342.4,32.9c0-3.5-0.8-6.7-2.3-9.3  s-3.7-4.7-6.4-6.2c-2.7-1.4-5.7-2.1-9.1-2.1c-3.4,0-6.5,0.7-9.3,2.2c-2.8,1.5-4.9,3.6-6.5,6.3c-1.6,2.7-2.4,5.7-2.4,9  c0,3.4,0.8,6.4,2.4,9c1.6,2.7,3.9,4.7,6.8,6.2c2.9,1.5,6.3,2.2,10.2,2.2c6.2,0,10.8-1.8,14-5.5l-5.2-5.7c-1.2,1.1-2.5,2-3.8,2.5  c-1.4,0.5-2.9,0.8-4.7,0.8c-2.6,0-4.7-0.6-6.4-1.8c-1.7-1.2-2.8-2.9-3.3-5h25.8C342.4,33.9,342.4,33,342.4,32.9z M316.4,29.8  c0.3-2.2,1.3-3.9,2.8-5.2c1.5-1.3,3.4-1.9,5.6-1.9c2.2,0,4.1,0.6,5.6,1.9c1.5,1.3,2.4,3,2.8,5.2H316.4z"></path></g></svg>