<?xml version="1.0" encoding="UTF-8"?>
<svg id="Layer_1" data-name="Layer 1" xmlns="http://www.w3.org/2000/svg" viewBox="0 0 220 150">
  <defs>
    <style>
      .cls-1, .cls-2 {
        fill: #fff;
      }

      .cls-3 {
        fill: #a7a9ac;
      }

      .cls-2 {
        stroke: #fff;
        stroke-miterlimit: 10;
        stroke-width: 17.01px;
      }
    </style>
  </defs>
  <rect class="cls-1" width="220" height="150"/>
  <rect class="cls-3" x="160.83" y="56.36" width="40" height="30" rx="6.03" ry="6.03"/>
  <rect class="cls-3" x="113.61" y="56.36" width="40" height="30" rx="6.03" ry="6.03"/>
  <rect class="cls-3" x="66.39" y="56.36" width="40" height="30" rx="6.03" ry="6.03"/>
  <rect class="cls-3" x="19.17" y="56.36" width="40" height="30" rx="6.03" ry="6.03"/>
  <rect class="cls-3" x="160.83" y="18.47" width="40" height="30" rx="6.03" ry="6.03"/>
  <rect class="cls-3" x="113.61" y="18.47" width="40" height="30" rx="6.03" ry="6.03"/>
  <rect class="cls-3" x="66.39" y="18.47" width="40" height="30" rx="6.03" ry="6.03"/>
  <rect class="cls-3" x="19.17" y="18.47" width="40" height="30" rx="6.03" ry="6.03"/>
  <rect class="cls-3" x="160.83" y="92.98" width="40" height="30" rx="6.03" ry="6.03"/>
  <rect class="cls-3" x="113.61" y="92.98" width="40" height="30" rx="6.03" ry="6.03"/>
  <rect class="cls-3" x="66.39" y="92.98" width="40" height="30" rx="6.03" ry="6.03"/>
  <rect class="cls-3" x="19.17" y="92.98" width="40" height="30" rx="6.03" ry="6.03"/>
  <path class="cls-3" d="m200.83,150v-14.37c0-3.33-2.7-6.03-6.03-6.03h-27.94c-3.33,0-6.03,2.7-6.03,6.03v14.37h40Z"/>
  <path class="cls-3" d="m154.13,150v-14.37c0-3.33-2.7-6.03-6.03-6.03h-27.94c-3.33,0-6.03,2.7-6.03,6.03v14.37h40Z"/>
  <path class="cls-3" d="m107.42,150v-14.37c0-3.33-2.7-6.03-6.03-6.03h-27.94c-3.33,0-6.03,2.7-6.03,6.03v14.37h40Z"/>
  <path class="cls-3" d="m60.71,150v-14.37c0-3.33-2.7-6.03-6.03-6.03h-27.94c-3.33,0-6.03,2.7-6.03,6.03v14.37h40Z"/>
  <g>
    <path class="cls-2" d="m148.8,67.3c0,13.86-7.35,26.01-18.37,32.76-5.83,3.57-3.66,40.46-20.02,40.46-14.38,0-13.97-36.83-19.74-40.29-11.17-6.71-18.64-18.94-18.64-32.92,0-21.2,17.18-38.38,38.38-38.38s38.38,17.18,38.38,38.38Z"/>
    <g>
      <path class="cls-3" d="m110.42,34.59c18.04,0,32.71,14.68,32.71,32.71,0,11.48-5.85,21.92-15.66,27.92-4.24,2.59-5.35,8.44-7.03,17.28-1.69,8.9-4.25,22.35-10.03,22.35-4.48,0-7.71-14.71-9.26-21.78-2-9.13-3.33-15.16-7.56-17.7-9.95-5.98-15.89-16.47-15.89-28.06,0-18.04,14.67-32.71,32.71-32.71m0-5.67c-21.2,0-38.38,17.18-38.38,38.38,0,13.98,7.47,26.21,18.64,32.92,5.77,3.47,5.36,40.29,19.74,40.29,16.36,0,14.19-36.89,20.02-40.46,11.02-6.75,18.37-18.89,18.37-32.76,0-21.2-17.18-38.38-38.38-38.38h0Z"/>
      <path class="cls-3" d="m109.98,116.49c-5.46,0-10.46-1.85-14.3-4.91,2.49,11.21,5.83,24,14.3,24,9.83,0,12.97-13.32,15.17-24.73-3.95,3.49-9.29,5.64-15.17,5.64Z"/>
    </g>
  </g>
  <path class="cls-1" d="m42.92,77.81c5.69,0,11.38,0,17.07,0,1.82,0,3.73-.79,5.01-2.08s2.15-3.25,2.08-5.01c-.17-3.84-3.11-7.09-7.09-7.09h-17.07c-1.82,0-3.73.79-5.01,2.08s-2.15,3.25-2.08,5.01c.17,3.84,3.11,7.09,7.09,7.09h0Z"/>
  <path class="cls-1" d="m161.69,77.81c5.69,0,11.38,0,17.07,0,1.82,0,3.73-.79,5.01-2.08s2.15-3.25,2.08-5.01c-.17-3.84-3.11-7.09-7.09-7.09h-17.07c-1.82,0-3.73.79-5.01,2.08s-2.15,3.25-2.08,5.01c.17,3.84,3.11,7.09,7.09,7.09h0Z"/>
  <g>
    <path class="cls-1" d="m46.63,46.25c5.08,2.56,10.16,5.13,15.24,7.69,1.71.86,3.58,1.23,5.46.71,1.64-.45,3.43-1.72,4.24-3.26.87-1.64,1.3-3.64.71-5.46-.55-1.7-1.61-3.41-3.26-4.24-5.08-2.56-10.16-5.13-15.24-7.69-1.71-.86-3.58-1.23-5.46-.71-1.64.45-3.43,1.72-4.24,3.26-.87,1.64-1.3,3.64-.71,5.46.55,1.7,1.61,3.41,3.26,4.24h0Z"/>
    <path class="cls-1" d="m152.66,99.75c5.08,2.56,10.16,5.13,15.24,7.69,1.71.86,3.58,1.23,5.46.71,1.64-.45,3.43-1.72,4.24-3.26.87-1.64,1.3-3.64.71-5.46-.55-1.7-1.61-3.41-3.26-4.24-5.08-2.56-10.16-5.13-15.24-7.69-1.71-.86-3.58-1.23-5.46-.71-1.64.45-3.43,1.72-4.24,3.26-.87,1.64-1.3,3.64-.71,5.46.55,1.7,1.61,3.41,3.26,4.24h0Z"/>
  </g>
  <g>
    <path class="cls-1" d="m53.52,106.93c5.1-2.52,10.21-5.04,15.31-7.56,1.53-.75,2.82-2.64,3.26-4.24.47-1.7.26-3.96-.71-5.46s-2.43-2.85-4.24-3.26c-1.93-.44-3.68-.17-5.46.71-5.1,2.52-10.21,5.04-15.31,7.56-1.53.75-2.82,2.64-3.26,4.24-.47,1.7-.26,3.96.71,5.46s2.43,2.85,4.24,3.26c1.93.44,3.68.17,5.46-.71h0Z"/>
    <path class="cls-1" d="m160.01,54.32c5.1-2.52,10.21-5.04,15.31-7.56,1.53-.75,2.82-2.64,3.26-4.24.47-1.7.26-3.96-.71-5.46s-2.43-2.85-4.24-3.26c-1.93-.44-3.68-.17-5.46.71-5.1,2.52-10.21,5.04-15.31,7.56-1.53.75-2.82,2.64-3.26,4.24-.47,1.7-.26,3.96.71,5.46s2.43,2.85,4.24,3.26c1.93.44,3.68.17,5.46-.71h0Z"/>
  </g>
  <circle class="cls-3" cx="101.92" cy="56.3" r="6.24"/>
  <path class="cls-3" d="m42.92,73.23h17.07c1.35,0,2.5-1.15,2.5-2.5s-1.14-2.5-2.5-2.5h-17.07c-1.35,0-2.5,1.15-2.5,2.5s1.14,2.5,2.5,2.5h0Z"/>
  <path class="cls-3" d="m161.69,73.23h17.07c1.35,0,2.5-1.15,2.5-2.5s-1.14-2.5-2.5-2.5h-17.07c-1.35,0-2.5,1.15-2.5,2.5s1.14,2.5,2.5,2.5h0Z"/>
  <g>
    <path class="cls-3" d="m48.94,42.29c5.08,2.56,10.16,5.13,15.24,7.69,1.17.59,2.76.35,3.42-.9.6-1.14.35-2.79-.9-3.42-5.08-2.56-10.16-5.13-15.24-7.69-1.17-.59-2.76-.35-3.42.9-.6,1.14-.35,2.79.9,3.42h0Z"/>
    <path class="cls-3" d="m154.98,95.79c5.08,2.56,10.16,5.13,15.24,7.69,1.17.59,2.76.35,3.42-.9.6-1.14.35-2.79-.9-3.42-5.08-2.56-10.16-5.13-15.24-7.69-1.17-.59-2.76-.35-3.42.9-.6,1.14-.35,2.79.9,3.42h0Z"/>
  </g>
  <g>
    <path class="cls-3" d="m51.21,102.97c5.1-2.52,10.21-5.04,15.31-7.56,1.18-.58,1.59-2.34.9-3.42-.78-1.2-2.16-1.52-3.42-.9-5.1,2.52-10.21,5.04-15.31,7.56-1.18.58-1.59,2.34-.9,3.42.78,1.2,2.16,1.52,3.42.9h0Z"/>
    <path class="cls-3" d="m157.69,50.36l15.31-7.56c1.18-.58,1.59-2.34.9-3.42-.78-1.2-2.16-1.52-3.42-.9l-15.31,7.56c-1.18.58-1.59,2.34-.9,3.42.78,1.2,2.16,1.52,3.42.9h0Z"/>
  </g>
</svg>