<?xml version="1.0" encoding="utf-8"?>
<!-- Generator: Adobe Illustrator 22.0.1, SVG Export Plug-In . SVG Version: 6.00 Build 0)  -->
<svg version="1.1" id="Layer_1" xmlns="http://www.w3.org/2000/svg" xmlns:xlink="http://www.w3.org/1999/xlink" x="0px" y="0px"
	 viewBox="0 0 102 100" style="enable-background:new 0 0 102 100;" xml:space="preserve" width="16px" height="16px">
<style type="text/css">
	.st0{fill:url(#SVGID_1_);}
	.st1{fill:#FFFFFF;}
</style>
<g>
	<linearGradient id="SVGID_1_" gradientUnits="userSpaceOnUse" x1="106.5038" y1="70.1056" x2="-4.416" y2="29.7341">
		<stop  offset="0" style="stop-color:#EE3461"/>
		<stop  offset="1" style="stop-color:#EF4223"/>
	</linearGradient>
	<path class="st0" d="M101.6,79.9c0,10.9-8.4,19.3-19.3,19.3H20.2c-10.9,0-19.8-8.4-19.8-19.3V20C0.4,9.1,9.3,0.8,20.2,0.8h62.2
		c10.9,0,19.3,8.3,19.3,19.2V79.9z"/>
</g>
<path class="st1" d="M42.9,28c0,0-20.7,3.4-26.6,4.9c-2.7,0.7-5.2,1.4-5.3,3.4c0,1.5,0.5,3.2,3.4,2.9c3.7-0.6,13.5-2.6,13.5-2.6
	l-1.1,25.3c0,0-1.2,14,3.5,13.6s4-14.6,4-14.6s-0.9-17.3,0.6-25c0,0,9.4-1.2,14.4-2c3.7-0.4,3.2-3.7,2.5-5
	C50.9,27.4,47.6,27.3,42.9,28z"/>
<path class="st1" d="M56,28.7c0,0,4.1-0.9,4.6,4.9s2.5,22.6,4.1,26.9c1.2,3.4,1.9,2.4,2.6,1.1c2.9-6.7,6.5-17.6,9.2-24.8
	c1-2.8,3.7-11.9,8.6-11.4c5,0.2-0.1,10.4-1.4,13.4c-3.2,7.7-7.9,19.4-10.1,26.4c-0.7,2.2-2.4,8.1-6.4,8.1s-6.2-5.2-7.2-7.7
	C57,57.9,53.8,48,53.3,33.3C53.3,33.3,53.2,29.3,56,28.7z"/>
</svg>
